<svg width="18" height="18" viewBox="0 0 18 18" fill="none" xmlns="http://www.w3.org/2000/svg">
<path d="M17.3916 3.54633L11.9377 9.00078L17.3916 14.455C18.2028 15.2665 18.2028 16.5811 17.3916 17.3927C16.9863 17.798 16.4548 18.0008 15.9237 18.0008C15.3916 18.0008 14.8602 17.7983 14.4551 17.3927L9.00004 11.9379L3.54536 17.3926C3.14008 17.798 2.6086 18.0008 2.07697 18.0008C1.5455 18.0008 1.01439 17.7983 0.608741 17.3926C-0.2025 16.5814 -0.2025 15.2668 0.608741 14.4549L6.06249 9.00073L0.608431 3.54633C-0.20281 2.73509 -0.20281 1.42018 0.608431 0.60894C1.41952 -0.201678 2.73365 -0.201678 3.54505 0.60894L8.99998 6.06339L14.4545 0.60894C15.2661 -0.201678 16.5804 -0.201678 17.3913 0.60894C18.2028 1.42018 18.2028 2.73509 17.3916 3.54633Z" fill="#828282"/>
</svg>
